<svg width="11" height="12" viewBox="0 0 11 12" fill="none" xmlns="http://www.w3.org/2000/svg">
<path d="M4.64811 0.946937C3.24403 1.32245 2.0522 2.26939 1.43179 3.51837C0.966482 4.43265 0.860359 4.9551 0.909339 6.04081C0.941992 6.69388 0.999135 7.02857 1.1624 7.4449C1.72567 8.90612 2.84403 10 4.23179 10.449C4.78689 10.6286 4.80322 10.6367 4.82771 10.9306L4.8522 11.2245H5.79097H6.72975L6.75424 10.9388C6.77873 10.6531 6.79505 10.6449 7.37464 10.4653C8.95832 9.97551 10.2971 8.47347 10.6481 6.81632C11.0073 5.1102 10.5257 3.50204 9.30934 2.28571C8.6073 1.59184 8.00322 1.23265 7.09709 0.987753C6.37056 0.783671 5.3175 0.767344 4.64811 0.946937ZM4.32158 2.87347C5.21138 3.32245 5.30118 4.58775 4.50118 5.18367C4.32975 5.31428 4.15015 5.34694 3.70934 5.34694C3.03995 5.34694 2.78689 5.20816 2.52567 4.68571C2.18281 3.99183 2.42771 3.21632 3.09709 2.87347C3.29301 2.77551 3.57056 2.69388 3.70934 2.69388C3.84811 2.69388 4.12566 2.77551 4.32158 2.87347ZM8.42771 2.80816C9.0073 3.0449 9.39097 3.74694 9.26852 4.34285C9.20322 4.66939 8.86852 5.1102 8.56648 5.2653C8.21546 5.4449 7.53791 5.42041 7.21138 5.21632C6.48485 4.76734 6.3624 3.64898 6.99097 3.08571C7.38281 2.72653 7.97056 2.61224 8.42771 2.80816ZM3.36648 6.37551C3.66852 6.53061 3.83179 6.8 3.83179 7.15102C3.83179 7.55918 3.61138 7.86939 3.22771 8C2.68077 8.17959 2.07669 7.72245 2.09301 7.13469C2.10934 6.50612 2.80322 6.08979 3.36648 6.37551ZM9.12975 6.4C9.54607 6.62041 9.68485 7.31428 9.38281 7.69796C9.18689 7.94285 8.74607 8.10612 8.46036 8.04081C8.19097 7.96734 7.86444 7.60816 7.79913 7.30612C7.73383 6.99592 7.9624 6.53061 8.23995 6.39183C8.50934 6.25306 8.8522 6.26122 9.12975 6.4ZM6.44403 7.36326C7.52975 7.9102 7.35832 9.49388 6.18281 9.86939C5.60322 10.0571 4.90934 9.73061 4.59913 9.13469C4.40322 8.74285 4.4522 8.1551 4.72158 7.77959C5.15424 7.18367 5.78281 7.03673 6.44403 7.36326Z" fill="#667080"/>
</svg>
